<svg width="865" height="143" viewBox="0 0 865 143" fill="none" xmlns="http://www.w3.org/2000/svg">
<rect x="63.9463" y="40.9536" width="9" height="24" transform="rotate(-0.036327 63.9463 40.9536)" fill="white"/>
<rect x="95.9355" y="23.9333" width="9" height="24" transform="rotate(-0.036327 95.9355 23.9333)" fill="white"/>
<rect x="48.9355" y="23.9631" width="9" height="26" transform="rotate(-0.036327 48.9355 23.9631)" fill="white"/>
<rect x="80.9473" y="40.9429" width="9" height="24" transform="rotate(-0.036327 80.9473 40.9429)" fill="white"/>
<rect x="128.947" y="40.9124" width="9" height="24" transform="rotate(-0.036327 128.947 40.9124)" fill="white"/>
<rect x="134.752" y="55.9243" width="9" height="49.74" transform="rotate(89.9876 134.752 55.9243)" fill="white"/>
<rect x="68.6074" y="55.958" width="9" height="19.3419" transform="rotate(89.9876 68.6074 55.958)" fill="white"/>
<rect x="66.5967" y="40.9592" width="9" height="17.6468" transform="rotate(89.9876 66.5967 40.9592)" fill="white"/>
<rect x="104.969" y="39.9375" width="9" height="24.0192" transform="rotate(89.9876 104.969 39.9375)" fill="white"/>
<rect x="104.895" y="23.9519" width="9" height="55.7831" transform="rotate(89.9876 104.895 23.9519)" fill="white"/>
<rect x="128.947" y="40.9126" width="9" height="24" transform="rotate(-0.036327 128.947 40.9126)" fill="white"/>
<rect x="160.936" y="23.8923" width="9" height="24" transform="rotate(-0.036327 160.936 23.8923)" fill="white"/>
<rect x="113.936" y="23.9221" width="9" height="26" transform="rotate(-0.036327 113.936 23.9221)" fill="white"/>
<rect x="145.947" y="40.9019" width="9" height="24" transform="rotate(-0.036327 145.947 40.9019)" fill="white"/>
<rect x="193.947" y="40.8713" width="9" height="24" transform="rotate(-0.036327 193.947 40.8713)" fill="white"/>
<rect x="199.752" y="55.8833" width="9" height="49.74" transform="rotate(89.9876 199.752 55.8833)" fill="white"/>
<rect x="133.607" y="55.917" width="9" height="17.6468" transform="rotate(89.9876 133.607 55.917)" fill="white"/>
<rect x="131.598" y="40.9182" width="9" height="17.6468" transform="rotate(89.9876 131.598 40.9182)" fill="white"/>
<rect x="169.969" y="39.8965" width="9" height="24.0192" transform="rotate(89.9876 169.969 39.8965)" fill="white"/>
<rect x="169.895" y="23.9111" width="9" height="55.5753" transform="rotate(89.9876 169.895 23.9111)" fill="white"/>
<rect x="193.947" y="40.8713" width="9" height="24" transform="rotate(-0.036327 193.947 40.8713)" fill="white"/>
<rect x="225.936" y="23.8511" width="9" height="24" transform="rotate(-0.036327 225.936 23.8511)" fill="white"/>
<rect x="178.936" y="23.8809" width="9" height="26" transform="rotate(-0.036327 178.936 23.8809)" fill="white"/>
<rect x="210.947" y="40.8606" width="9" height="24" transform="rotate(-0.036327 210.947 40.8606)" fill="white"/>
<rect x="258.947" y="40.8301" width="9" height="24" transform="rotate(-0.036327 258.947 40.8301)" fill="white"/>
<rect x="264.752" y="55.842" width="9" height="49.74" transform="rotate(89.9876 264.752 55.842)" fill="white"/>
<rect x="198.607" y="55.8757" width="9" height="17.6468" transform="rotate(89.9876 198.607 55.8757)" fill="white"/>
<rect x="196.598" y="40.877" width="9" height="17.6468" transform="rotate(89.9876 196.598 40.877)" fill="white"/>
<rect x="234.969" y="39.8552" width="9" height="24.0192" transform="rotate(89.9876 234.969 39.8552)" fill="white"/>
<rect x="234.895" y="23.8699" width="9" height="55.5753" transform="rotate(89.9876 234.895 23.8699)" fill="white"/>
<rect x="258.947" y="40.8301" width="9" height="24" transform="rotate(-0.036327 258.947 40.8301)" fill="white"/>
<rect x="290.936" y="23.8098" width="9" height="24" transform="rotate(-0.036327 290.936 23.8098)" fill="white"/>
<rect x="243.936" y="23.8396" width="9" height="26" transform="rotate(-0.036327 243.936 23.8396)" fill="white"/>
<rect x="275.947" y="40.8193" width="9" height="24" transform="rotate(-0.036327 275.947 40.8193)" fill="white"/>
<rect x="323.947" y="40.7888" width="9" height="24" transform="rotate(-0.036327 323.947 40.7888)" fill="white"/>
<rect x="329.752" y="55.8008" width="9" height="49.74" transform="rotate(89.9876 329.752 55.8008)" fill="white"/>
<rect x="263.607" y="55.8345" width="9" height="17.6468" transform="rotate(89.9876 263.607 55.8345)" fill="white"/>
<rect x="261.598" y="40.8357" width="9" height="17.6468" transform="rotate(89.9876 261.598 40.8357)" fill="white"/>
<rect x="299.969" y="39.814" width="9" height="24.0192" transform="rotate(89.9876 299.969 39.814)" fill="white"/>
<rect x="299.895" y="23.8286" width="9" height="55.5753" transform="rotate(89.9876 299.895 23.8286)" fill="white"/>
<rect x="323.947" y="40.7891" width="9" height="24" transform="rotate(-0.036327 323.947 40.7891)" fill="white"/>
<rect x="355.936" y="23.7688" width="9" height="24" transform="rotate(-0.036327 355.936 23.7688)" fill="white"/>
<rect x="308.936" y="23.7986" width="9" height="26" transform="rotate(-0.036327 308.936 23.7986)" fill="white"/>
<rect x="340.947" y="40.7783" width="9" height="24" transform="rotate(-0.036327 340.947 40.7783)" fill="white"/>
<rect x="388.947" y="40.7478" width="9" height="24" transform="rotate(-0.036327 388.947 40.7478)" fill="white"/>
<rect x="394.752" y="55.7598" width="9" height="49.74" transform="rotate(89.9876 394.752 55.7598)" fill="white"/>
<rect x="328.607" y="55.7935" width="9" height="17.6468" transform="rotate(89.9876 328.607 55.7935)" fill="white"/>
<rect x="326.598" y="40.7947" width="9" height="17.6468" transform="rotate(89.9876 326.598 40.7947)" fill="white"/>
<rect x="364.969" y="39.7729" width="9" height="24.0192" transform="rotate(89.9876 364.969 39.7729)" fill="white"/>
<rect x="364.895" y="23.7876" width="9" height="55.5753" transform="rotate(89.9876 364.895 23.7876)" fill="white"/>
<rect x="388.947" y="40.7478" width="9" height="24" transform="rotate(-0.036327 388.947 40.7478)" fill="white"/>
<rect x="420.936" y="23.7275" width="9" height="24" transform="rotate(-0.036327 420.936 23.7275)" fill="white"/>
<rect x="373.936" y="23.7573" width="9" height="26" transform="rotate(-0.036327 373.936 23.7573)" fill="white"/>
<rect x="405.947" y="40.7371" width="9" height="24" transform="rotate(-0.036327 405.947 40.7371)" fill="white"/>
<rect x="453.947" y="40.7065" width="9" height="24" transform="rotate(-0.036327 453.947 40.7065)" fill="white"/>
<rect x="459.752" y="55.7185" width="9" height="49.74" transform="rotate(89.9876 459.752 55.7185)" fill="white"/>
<rect x="393.607" y="55.7522" width="9" height="17.6468" transform="rotate(89.9876 393.607 55.7522)" fill="white"/>
<rect x="391.598" y="40.7534" width="9" height="17.6468" transform="rotate(89.9876 391.598 40.7534)" fill="white"/>
<rect x="429.969" y="39.7317" width="9" height="24.0192" transform="rotate(89.9876 429.969 39.7317)" fill="white"/>
<rect x="429.895" y="23.7463" width="9" height="55.5753" transform="rotate(89.9876 429.895 23.7463)" fill="white"/>
<rect x="453.947" y="40.7065" width="9" height="24" transform="rotate(-0.036327 453.947 40.7065)" fill="white"/>
<rect x="485.936" y="23.6863" width="9" height="24" transform="rotate(-0.036327 485.936 23.6863)" fill="white"/>
<rect x="438.936" y="23.7161" width="9" height="26" transform="rotate(-0.036327 438.936 23.7161)" fill="white"/>
<rect x="470.947" y="40.6958" width="9" height="24" transform="rotate(-0.036327 470.947 40.6958)" fill="white"/>
<rect x="518.947" y="40.6653" width="9" height="24" transform="rotate(-0.036327 518.947 40.6653)" fill="white"/>
<rect x="524.752" y="55.6772" width="9" height="49.74" transform="rotate(89.9876 524.752 55.6772)" fill="white"/>
<rect x="458.607" y="55.7109" width="9" height="17.6468" transform="rotate(89.9876 458.607 55.7109)" fill="white"/>
<rect x="456.598" y="40.7122" width="9" height="17.6468" transform="rotate(89.9876 456.598 40.7122)" fill="white"/>
<rect x="494.969" y="39.6904" width="9" height="24.0192" transform="rotate(89.9876 494.969 39.6904)" fill="white"/>
<rect x="494.895" y="23.7051" width="9" height="55.5753" transform="rotate(89.9876 494.895 23.7051)" fill="white"/>
<rect x="518.947" y="40.6653" width="9" height="24" transform="rotate(-0.036327 518.947 40.6653)" fill="white"/>
<rect x="550.936" y="23.645" width="9" height="24" transform="rotate(-0.036327 550.936 23.645)" fill="white"/>
<rect x="503.936" y="23.6748" width="9" height="26" transform="rotate(-0.036327 503.936 23.6748)" fill="white"/>
<rect x="535.947" y="40.6545" width="9" height="24" transform="rotate(-0.036327 535.947 40.6545)" fill="white"/>
<rect x="583.947" y="40.624" width="9" height="24" transform="rotate(-0.036327 583.947 40.624)" fill="white"/>
<rect x="589.752" y="55.636" width="9" height="49.74" transform="rotate(89.9876 589.752 55.636)" fill="white"/>
<rect x="523.607" y="55.6697" width="9" height="17.6468" transform="rotate(89.9876 523.607 55.6697)" fill="white"/>
<rect x="521.598" y="40.6709" width="9" height="17.6468" transform="rotate(89.9876 521.598 40.6709)" fill="white"/>
<rect x="559.969" y="39.6492" width="9" height="24.0192" transform="rotate(89.9876 559.969 39.6492)" fill="white"/>
<rect x="559.895" y="23.6638" width="9" height="55.5753" transform="rotate(89.9876 559.895 23.6638)" fill="white"/>
<rect x="583.947" y="40.624" width="9" height="24" transform="rotate(-0.036327 583.947 40.624)" fill="white"/>
<rect x="615.936" y="23.6038" width="9" height="24" transform="rotate(-0.036327 615.936 23.6038)" fill="white"/>
<rect x="568.936" y="23.6335" width="9" height="26" transform="rotate(-0.036327 568.936 23.6335)" fill="white"/>
<rect x="600.947" y="40.6133" width="9" height="24" transform="rotate(-0.036327 600.947 40.6133)" fill="white"/>
<rect x="648.947" y="40.5828" width="9" height="24" transform="rotate(-0.036327 648.947 40.5828)" fill="white"/>
<rect x="654.752" y="55.5947" width="9" height="49.74" transform="rotate(89.9876 654.752 55.5947)" fill="white"/>
<rect x="588.607" y="55.6284" width="9" height="17.6468" transform="rotate(89.9876 588.607 55.6284)" fill="white"/>
<rect x="586.598" y="40.6296" width="9" height="17.6468" transform="rotate(89.9876 586.598 40.6296)" fill="white"/>
<rect x="624.969" y="39.6079" width="9" height="24.0192" transform="rotate(89.9876 624.969 39.6079)" fill="white"/>
<rect x="624.895" y="23.6226" width="9" height="55.5753" transform="rotate(89.9876 624.895 23.6226)" fill="white"/>
<rect x="648.947" y="40.583" width="9" height="24" transform="rotate(-0.036327 648.947 40.583)" fill="white"/>
<rect x="680.936" y="23.5627" width="9" height="24" transform="rotate(-0.036327 680.936 23.5627)" fill="white"/>
<rect x="633.936" y="23.5925" width="9" height="26" transform="rotate(-0.036327 633.936 23.5925)" fill="white"/>
<rect x="665.947" y="40.5723" width="9" height="24" transform="rotate(-0.036327 665.947 40.5723)" fill="white"/>
<rect x="713.947" y="40.5417" width="9" height="24" transform="rotate(-0.036327 713.947 40.5417)" fill="white"/>
<rect x="719.752" y="55.5537" width="9" height="49.74" transform="rotate(89.9876 719.752 55.5537)" fill="white"/>
<rect x="653.607" y="55.5874" width="9" height="17.6468" transform="rotate(89.9876 653.607 55.5874)" fill="white"/>
<rect x="651.598" y="40.5886" width="9" height="17.6468" transform="rotate(89.9876 651.598 40.5886)" fill="white"/>
<rect x="689.969" y="39.5669" width="9" height="24.0192" transform="rotate(89.9876 689.969 39.5669)" fill="white"/>
<rect x="689.895" y="23.5815" width="9" height="55.5753" transform="rotate(89.9876 689.895 23.5815)" fill="white"/>
<rect x="713.947" y="40.5417" width="9" height="24" transform="rotate(-0.036327 713.947 40.5417)" fill="white"/>
<rect x="745.936" y="23.5215" width="9" height="24" transform="rotate(-0.036327 745.936 23.5215)" fill="white"/>
<rect x="698.936" y="23.5513" width="9" height="26" transform="rotate(-0.036327 698.936 23.5513)" fill="white"/>
<rect x="730.947" y="40.531" width="9" height="24" transform="rotate(-0.036327 730.947 40.531)" fill="white"/>
<rect x="778.947" y="40.5005" width="9" height="24" transform="rotate(-0.036327 778.947 40.5005)" fill="white"/>
<rect x="784.752" y="55.5125" width="9" height="49.74" transform="rotate(89.9876 784.752 55.5125)" fill="white"/>
<rect x="718.607" y="55.5461" width="9" height="17.6468" transform="rotate(89.9876 718.607 55.5461)" fill="white"/>
<rect x="716.598" y="40.5474" width="9" height="17.6468" transform="rotate(89.9876 716.598 40.5474)" fill="white"/>
<rect x="754.969" y="39.5256" width="9" height="24.0192" transform="rotate(89.9876 754.969 39.5256)" fill="white"/>
<rect x="754.895" y="23.5403" width="9" height="55.5753" transform="rotate(89.9876 754.895 23.5403)" fill="white"/>
<rect x="778.947" y="40.5005" width="9" height="24" transform="rotate(-0.036327 778.947 40.5005)" fill="white"/>
<rect x="810.936" y="23.4802" width="9" height="24" transform="rotate(-0.036327 810.936 23.4802)" fill="white"/>
<rect x="763.936" y="23.51" width="9" height="26" transform="rotate(-0.036327 763.936 23.51)" fill="white"/>
<rect x="795.947" y="40.4897" width="9" height="24" transform="rotate(-0.036327 795.947 40.4897)" fill="white"/>
<rect x="843.947" y="40.4592" width="9" height="24" transform="rotate(-0.036327 843.947 40.4592)" fill="white"/>
<rect x="849.752" y="55.4712" width="9" height="49.74" transform="rotate(89.9876 849.752 55.4712)" fill="white"/>
<rect x="783.607" y="55.5049" width="9" height="17.6468" transform="rotate(89.9876 783.607 55.5049)" fill="white"/>
<rect x="781.598" y="40.5061" width="9" height="17.6468" transform="rotate(89.9876 781.598 40.5061)" fill="white"/>
<rect x="819.969" y="39.4844" width="9" height="24.0192" transform="rotate(89.9876 819.969 39.4844)" fill="white"/>
<rect x="819.895" y="23.499" width="9" height="55.5753" transform="rotate(89.9876 819.895 23.499)" fill="white"/>
<rect x="843.947" y="40.4592" width="9" height="24" transform="rotate(-0.036327 843.947 40.4592)" fill="white"/>
<rect x="828.936" y="23.4688" width="9" height="26" transform="rotate(-0.036327 828.936 23.4688)" fill="white"/>
<rect x="860.947" y="40.4485" width="9" height="24" transform="rotate(-0.036327 860.947 40.4485)" fill="white"/>
<rect x="848.607" y="55.4636" width="9" height="17.6468" transform="rotate(89.9876 848.607 55.4636)" fill="white"/>
<rect x="846.598" y="40.4648" width="9" height="17.6468" transform="rotate(89.9876 846.598 40.4648)" fill="white"/>
<rect x="884.969" y="39.4431" width="9" height="24.0192" transform="rotate(89.9876 884.969 39.4431)" fill="white"/>
<rect x="884.895" y="23.4578" width="9" height="55.5753" transform="rotate(89.9876 884.895 23.4578)" fill="white"/>
<rect x="0.743164" width="482.533" height="139.785" transform="rotate(0.304533 0.743164 0)" fill="url(#paint0_linear_87_6200)"/>
<defs>
<linearGradient id="paint0_linear_87_6200" x1="-120.528" y1="89.1445" x2="445.269" y2="114.749" gradientUnits="userSpaceOnUse">
<stop offset="0.374402" stop-color="#D61F3B"/>
<stop offset="1" stop-color="#DC213E" stop-opacity="0"/>
</linearGradient>
</defs>
</svg>
