<svg width="146" height="1024" viewBox="0 0 146 1024" fill="none" xmlns="http://www.w3.org/2000/svg">
<rect x="108.016" y="14.4363" width="8.66165" height="24" transform="rotate(90 108.016 14.4363)" fill="white"/>
<rect x="125.016" y="45.2334" width="8.66165" height="24" transform="rotate(90 125.016 45.2334)" fill="white"/>
<rect x="125.016" y="0.00012207" width="8.66165" height="26" transform="rotate(90 125.016 0.00012207)" fill="white"/>
<rect x="108.016" y="30.7971" width="8.66165" height="24" transform="rotate(90 108.016 30.7971)" fill="white"/>
<rect x="108.016" y="76.9927" width="8.66165" height="24" transform="rotate(90 108.016 76.9927)" fill="white"/>
<rect width="9" height="47.87" transform="matrix(-1 -0.000402452 0.000434505 -1 93 82.5706)" fill="white"/>
<rect width="9" height="18.6148" transform="matrix(-1 -0.000402452 0.000434505 -1 93.0078 18.9128)" fill="white"/>
<rect width="9" height="16.9834" transform="matrix(-1 -0.000402452 0.000434505 -1 108.008 16.9871)" fill="white"/>
<rect width="9" height="23.1162" transform="matrix(-1 -0.000402452 0.000434505 -1 109.006 53.9165)" fill="white"/>
<rect width="9" height="53.6859" transform="matrix(-1 -0.000402452 0.000434505 -1 124.992 53.856)" fill="white"/>
<rect x="108.016" y="76.9932" width="8.66165" height="24" transform="rotate(90 108.016 76.9932)" fill="white"/>
<rect x="125.016" y="107.79" width="8.66165" height="24" transform="rotate(90 125.016 107.79)" fill="white"/>
<rect x="125.016" y="62.5571" width="8.66165" height="26" transform="rotate(90 125.016 62.5571)" fill="white"/>
<rect x="108.016" y="93.354" width="8.66165" height="24" transform="rotate(90 108.016 93.354)" fill="white"/>
<rect x="108.016" y="139.55" width="8.66165" height="24" transform="rotate(90 108.016 139.55)" fill="white"/>
<rect width="9" height="47.87" transform="matrix(-1 -0.000402452 0.000434505 -1 93 145.127)" fill="white"/>
<rect width="9" height="16.9834" transform="matrix(-1 -0.000402452 0.000434505 -1 93.0078 81.4697)" fill="white"/>
<rect width="9" height="16.9834" transform="matrix(-1 -0.000402452 0.000434505 -1 108.008 79.5439)" fill="white"/>
<rect width="9" height="23.1162" transform="matrix(-1 -0.000402452 0.000434505 -1 109.006 116.473)" fill="white"/>
<rect width="9" height="53.4859" transform="matrix(-1 -0.000402452 0.000434505 -1 124.99 116.411)" fill="white"/>
<rect x="108.016" y="139.55" width="8.66165" height="24" transform="rotate(90 108.016 139.55)" fill="white"/>
<rect x="125.016" y="170.346" width="8.66165" height="24" transform="rotate(90 125.016 170.346)" fill="white"/>
<rect x="125.016" y="125.113" width="8.66165" height="26" transform="rotate(90 125.016 125.113)" fill="white"/>
<rect x="108.016" y="155.91" width="8.66165" height="24" transform="rotate(90 108.016 155.91)" fill="white"/>
<rect x="108.016" y="202.106" width="8.66165" height="24" transform="rotate(90 108.016 202.106)" fill="white"/>
<rect width="9" height="47.87" transform="matrix(-1 -0.000402452 0.000434505 -1 93 207.684)" fill="white"/>
<rect width="9" height="16.9834" transform="matrix(-1 -0.000402452 0.000434505 -1 93.0078 144.026)" fill="white"/>
<rect width="9" height="16.9834" transform="matrix(-1 -0.000402452 0.000434505 -1 108.008 142.1)" fill="white"/>
<rect width="9" height="23.1162" transform="matrix(-1 -0.000402452 0.000434505 -1 109.006 179.03)" fill="white"/>
<rect width="9" height="53.4859" transform="matrix(-1 -0.000402452 0.000434505 -1 124.99 178.968)" fill="white"/>
<rect x="108.016" y="202.106" width="8.66165" height="24" transform="rotate(90 108.016 202.106)" fill="white"/>
<rect x="125.016" y="232.903" width="8.66165" height="24" transform="rotate(90 125.016 232.903)" fill="white"/>
<rect x="125.016" y="187.67" width="8.66165" height="26" transform="rotate(90 125.016 187.67)" fill="white"/>
<rect x="108.016" y="218.467" width="8.66165" height="24" transform="rotate(90 108.016 218.467)" fill="white"/>
<rect x="108.016" y="264.662" width="8.66165" height="24" transform="rotate(90 108.016 264.662)" fill="white"/>
<rect width="9" height="47.87" transform="matrix(-1 -0.000402452 0.000434505 -1 93 270.24)" fill="white"/>
<rect width="9" height="16.9834" transform="matrix(-1 -0.000402452 0.000434505 -1 93.0078 206.582)" fill="white"/>
<rect width="9" height="16.9834" transform="matrix(-1 -0.000402452 0.000434505 -1 108.008 204.656)" fill="white"/>
<rect width="9" height="23.1162" transform="matrix(-1 -0.000402452 0.000434505 -1 109.006 241.586)" fill="white"/>
<rect width="9" height="53.4859" transform="matrix(-1 -0.000402452 0.000434505 -1 124.99 241.524)" fill="white"/>
<rect x="108.016" y="264.662" width="8.66165" height="24" transform="rotate(90 108.016 264.662)" fill="white"/>
<rect x="125.016" y="295.459" width="8.66165" height="24" transform="rotate(90 125.016 295.459)" fill="white"/>
<rect x="125.016" y="250.226" width="8.66165" height="26" transform="rotate(90 125.016 250.226)" fill="white"/>
<rect x="108.016" y="281.023" width="8.66165" height="24" transform="rotate(90 108.016 281.023)" fill="white"/>
<rect x="108.016" y="327.218" width="8.66165" height="24" transform="rotate(90 108.016 327.218)" fill="white"/>
<rect width="9" height="47.87" transform="matrix(-1 -0.000402452 0.000434505 -1 93 332.796)" fill="white"/>
<rect width="9" height="16.9834" transform="matrix(-1 -0.000402452 0.000434505 -1 93.0078 269.138)" fill="white"/>
<rect width="9" height="16.9834" transform="matrix(-1 -0.000402452 0.000434505 -1 108.008 267.213)" fill="white"/>
<rect width="9" height="23.1162" transform="matrix(-1 -0.000402452 0.000434505 -1 109.006 304.142)" fill="white"/>
<rect width="9" height="53.4859" transform="matrix(-1 -0.000402452 0.000434505 -1 124.99 304.08)" fill="white"/>
<rect x="108.016" y="327.218" width="8.66165" height="24" transform="rotate(90 108.016 327.218)" fill="white"/>
<rect x="125.016" y="358.015" width="8.66165" height="24" transform="rotate(90 125.016 358.015)" fill="white"/>
<rect x="125.016" y="312.782" width="8.66165" height="26" transform="rotate(90 125.016 312.782)" fill="white"/>
<rect x="108.016" y="343.579" width="8.66165" height="24" transform="rotate(90 108.016 343.579)" fill="white"/>
<rect x="108.016" y="389.775" width="8.66165" height="24" transform="rotate(90 108.016 389.775)" fill="white"/>
<rect width="9" height="47.87" transform="matrix(-1 -0.000402452 0.000434505 -1 93 395.353)" fill="white"/>
<rect width="9" height="16.9834" transform="matrix(-1 -0.000402452 0.000434505 -1 93.0078 331.695)" fill="white"/>
<rect width="9" height="16.9834" transform="matrix(-1 -0.000402452 0.000434505 -1 108.008 329.769)" fill="white"/>
<rect width="9" height="23.1162" transform="matrix(-1 -0.000402452 0.000434505 -1 109.006 366.698)" fill="white"/>
<rect width="9" height="53.4859" transform="matrix(-1 -0.000402452 0.000434505 -1 124.99 366.636)" fill="white"/>
<rect x="108.016" y="389.775" width="8.66165" height="24" transform="rotate(90 108.016 389.775)" fill="white"/>
<rect x="125.016" y="420.572" width="8.66165" height="24" transform="rotate(90 125.016 420.572)" fill="white"/>
<rect x="125.016" y="375.339" width="8.66165" height="26" transform="rotate(90 125.016 375.339)" fill="white"/>
<rect x="108.016" y="406.136" width="8.66165" height="24" transform="rotate(90 108.016 406.136)" fill="white"/>
<rect x="108.016" y="452.331" width="8.66165" height="24" transform="rotate(90 108.016 452.331)" fill="white"/>
<rect width="9" height="47.87" transform="matrix(-1 -0.000402452 0.000434505 -1 93 457.909)" fill="white"/>
<rect width="9" height="16.9834" transform="matrix(-1 -0.000402452 0.000434505 -1 93.0078 394.251)" fill="white"/>
<rect width="9" height="16.9834" transform="matrix(-1 -0.000402452 0.000434505 -1 108.008 392.325)" fill="white"/>
<rect width="9" height="23.1162" transform="matrix(-1 -0.000402452 0.000434505 -1 109.006 429.255)" fill="white"/>
<rect width="9" height="53.4859" transform="matrix(-1 -0.000402452 0.000434505 -1 124.99 429.193)" fill="white"/>
<rect x="108.016" y="452.331" width="8.66165" height="24" transform="rotate(90 108.016 452.331)" fill="white"/>
<rect x="125.016" y="483.128" width="8.66165" height="24" transform="rotate(90 125.016 483.128)" fill="white"/>
<rect x="125.016" y="437.895" width="8.66165" height="26" transform="rotate(90 125.016 437.895)" fill="white"/>
<rect x="108.016" y="468.692" width="8.66165" height="24" transform="rotate(90 108.016 468.692)" fill="white"/>
<rect x="108.016" y="514.887" width="8.66165" height="24" transform="rotate(90 108.016 514.887)" fill="white"/>
<rect width="9" height="47.87" transform="matrix(-1 -0.000402452 0.000434505 -1 93 520.465)" fill="white"/>
<rect width="9" height="16.9834" transform="matrix(-1 -0.000402452 0.000434505 -1 93.0078 456.808)" fill="white"/>
<rect width="9" height="16.9834" transform="matrix(-1 -0.000402452 0.000434505 -1 108.008 454.882)" fill="white"/>
<rect width="9" height="23.1162" transform="matrix(-1 -0.000402452 0.000434505 -1 109.006 491.811)" fill="white"/>
<rect width="9" height="53.4859" transform="matrix(-1 -0.000402452 0.000434505 -1 124.99 491.749)" fill="white"/>
<rect x="108.016" y="514.887" width="8.66165" height="24" transform="rotate(90 108.016 514.887)" fill="white"/>
<rect x="125.016" y="545.684" width="8.66165" height="24" transform="rotate(90 125.016 545.684)" fill="white"/>
<rect x="125.016" y="500.451" width="8.66165" height="26" transform="rotate(90 125.016 500.451)" fill="white"/>
<rect x="108.016" y="531.248" width="8.66165" height="24" transform="rotate(90 108.016 531.248)" fill="white"/>
<rect x="108.016" y="577.444" width="8.66165" height="24" transform="rotate(90 108.016 577.444)" fill="white"/>
<rect width="9" height="47.87" transform="matrix(-1 -0.000402452 0.000434505 -1 93 583.022)" fill="white"/>
<rect width="9" height="16.9834" transform="matrix(-1 -0.000402452 0.000434505 -1 93.0078 519.364)" fill="white"/>
<rect width="9" height="16.9834" transform="matrix(-1 -0.000402452 0.000434505 -1 108.008 517.438)" fill="white"/>
<rect width="9" height="23.1162" transform="matrix(-1 -0.000402452 0.000434505 -1 109.006 554.368)" fill="white"/>
<rect width="9" height="53.4859" transform="matrix(-1 -0.000402452 0.000434505 -1 124.99 554.305)" fill="white"/>
<rect x="108.016" y="577.444" width="8.66165" height="24" transform="rotate(90 108.016 577.444)" fill="white"/>
<rect x="125.016" y="608.24" width="8.66165" height="24" transform="rotate(90 125.016 608.24)" fill="white"/>
<rect x="125.016" y="563.008" width="8.66165" height="26" transform="rotate(90 125.016 563.008)" fill="white"/>
<rect x="108.016" y="593.804" width="8.66165" height="24" transform="rotate(90 108.016 593.804)" fill="white"/>
<rect x="108.016" y="640" width="8.66165" height="24" transform="rotate(90 108.016 640)" fill="white"/>
<rect width="9" height="47.87" transform="matrix(-1 -0.000402452 0.000434505 -1 93 645.578)" fill="white"/>
<rect width="9" height="16.9834" transform="matrix(-1 -0.000402452 0.000434505 -1 93.0078 581.92)" fill="white"/>
<rect width="9" height="16.9834" transform="matrix(-1 -0.000402452 0.000434505 -1 108.008 579.994)" fill="white"/>
<rect width="9" height="23.1162" transform="matrix(-1 -0.000402452 0.000434505 -1 109.006 616.924)" fill="white"/>
<rect width="9" height="53.4859" transform="matrix(-1 -0.000402452 0.000434505 -1 124.99 616.862)" fill="white"/>
<rect x="108.016" y="640" width="8.66165" height="24" transform="rotate(90 108.016 640)" fill="white"/>
<rect x="125.016" y="670.797" width="8.66165" height="24" transform="rotate(90 125.016 670.797)" fill="white"/>
<rect x="125.016" y="625.564" width="8.66165" height="26" transform="rotate(90 125.016 625.564)" fill="white"/>
<rect x="108.016" y="656.361" width="8.66165" height="24" transform="rotate(90 108.016 656.361)" fill="white"/>
<rect x="108.016" y="702.556" width="8.66165" height="24" transform="rotate(90 108.016 702.556)" fill="white"/>
<rect width="9" height="47.87" transform="matrix(-1 -0.000402452 0.000434505 -1 93 708.135)" fill="white"/>
<rect width="9" height="16.9834" transform="matrix(-1 -0.000402452 0.000434505 -1 93.0078 644.477)" fill="white"/>
<rect width="9" height="16.9834" transform="matrix(-1 -0.000402452 0.000434505 -1 108.008 642.551)" fill="white"/>
<rect width="9" height="23.1162" transform="matrix(-1 -0.000402452 0.000434505 -1 109.006 679.48)" fill="white"/>
<rect width="9" height="53.4859" transform="matrix(-1 -0.000402452 0.000434505 -1 124.99 679.418)" fill="white"/>
<rect x="108.016" y="702.557" width="8.66165" height="24" transform="rotate(90 108.016 702.557)" fill="white"/>
<rect x="125.016" y="733.354" width="8.66165" height="24" transform="rotate(90 125.016 733.354)" fill="white"/>
<rect x="125.016" y="688.121" width="8.66165" height="26" transform="rotate(90 125.016 688.121)" fill="white"/>
<rect x="108.016" y="718.917" width="8.66165" height="24" transform="rotate(90 108.016 718.917)" fill="white"/>
<rect x="108.016" y="765.113" width="8.66165" height="24" transform="rotate(90 108.016 765.113)" fill="white"/>
<rect width="9" height="47.87" transform="matrix(-1 -0.000402452 0.000434505 -1 93 770.691)" fill="white"/>
<rect width="9" height="16.9834" transform="matrix(-1 -0.000402452 0.000434505 -1 93.0078 707.033)" fill="white"/>
<rect width="9" height="16.9834" transform="matrix(-1 -0.000402452 0.000434505 -1 108.008 705.107)" fill="white"/>
<rect width="9" height="23.1162" transform="matrix(-1 -0.000402452 0.000434505 -1 109.006 742.037)" fill="white"/>
<rect width="9" height="53.4859" transform="matrix(-1 -0.000402452 0.000434505 -1 124.99 741.975)" fill="white"/>
<rect x="108.016" y="765.113" width="8.66165" height="24" transform="rotate(90 108.016 765.113)" fill="white"/>
<rect x="125.016" y="795.91" width="8.66165" height="24" transform="rotate(90 125.016 795.91)" fill="white"/>
<rect x="125.016" y="750.677" width="8.66165" height="26" transform="rotate(90 125.016 750.677)" fill="white"/>
<rect x="108.016" y="781.474" width="8.66165" height="24" transform="rotate(90 108.016 781.474)" fill="white"/>
<rect x="108.016" y="827.669" width="8.66165" height="24" transform="rotate(90 108.016 827.669)" fill="white"/>
<rect width="9" height="47.87" transform="matrix(-1 -0.000402452 0.000434505 -1 93 833.247)" fill="white"/>
<rect width="9" height="16.9834" transform="matrix(-1 -0.000402452 0.000434505 -1 93.0078 769.59)" fill="white"/>
<rect width="9" height="16.9834" transform="matrix(-1 -0.000402452 0.000434505 -1 108.008 767.664)" fill="white"/>
<rect width="9" height="23.1162" transform="matrix(-1 -0.000402452 0.000434505 -1 109.006 804.593)" fill="white"/>
<rect width="9" height="53.4859" transform="matrix(-1 -0.000402452 0.000434505 -1 124.99 804.531)" fill="white"/>
<rect x="108.016" y="827.669" width="8.66165" height="24" transform="rotate(90 108.016 827.669)" fill="white"/>
<rect x="125.016" y="858.466" width="8.66165" height="24" transform="rotate(90 125.016 858.466)" fill="white"/>
<rect x="125.016" y="813.233" width="8.66165" height="26" transform="rotate(90 125.016 813.233)" fill="white"/>
<rect x="108.016" y="844.03" width="8.66165" height="24" transform="rotate(90 108.016 844.03)" fill="white"/>
<rect x="108.016" y="890.225" width="8.66165" height="24" transform="rotate(90 108.016 890.225)" fill="white"/>
<rect width="9" height="47.87" transform="matrix(-1 -0.000402452 0.000434505 -1 93 895.803)" fill="white"/>
<rect width="9" height="16.9834" transform="matrix(-1 -0.000402452 0.000434505 -1 93.0078 832.146)" fill="white"/>
<rect width="9" height="16.9834" transform="matrix(-1 -0.000402452 0.000434505 -1 108.008 830.22)" fill="white"/>
<rect width="9" height="23.1162" transform="matrix(-1 -0.000402452 0.000434505 -1 109.006 867.149)" fill="white"/>
<rect width="9" height="53.4859" transform="matrix(-1 -0.000402452 0.000434505 -1 124.99 867.087)" fill="white"/>
<rect x="108.016" y="890.226" width="8.66165" height="24" transform="rotate(90 108.016 890.226)" fill="white"/>
<rect x="125.016" y="921.023" width="8.66165" height="24" transform="rotate(90 125.016 921.023)" fill="white"/>
<rect x="125.016" y="875.79" width="8.66165" height="26" transform="rotate(90 125.016 875.79)" fill="white"/>
<rect x="108.016" y="906.587" width="8.66165" height="24" transform="rotate(90 108.016 906.587)" fill="white"/>
<rect x="108.016" y="952.782" width="8.66165" height="24" transform="rotate(90 108.016 952.782)" fill="white"/>
<rect width="9" height="47.87" transform="matrix(-1 -0.000402452 0.000434505 -1 93 958.36)" fill="white"/>
<rect width="9" height="16.9834" transform="matrix(-1 -0.000402452 0.000434505 -1 93.0078 894.702)" fill="white"/>
<rect width="9" height="16.9834" transform="matrix(-1 -0.000402452 0.000434505 -1 108.008 892.776)" fill="white"/>
<rect width="9" height="23.1162" transform="matrix(-1 -0.000402452 0.000434505 -1 109.006 929.706)" fill="white"/>
<rect width="9" height="53.4859" transform="matrix(-1 -0.000402452 0.000434505 -1 124.99 929.644)" fill="white"/>
<rect x="108.016" y="952.782" width="8.66165" height="24" transform="rotate(90 108.016 952.782)" fill="white"/>
<rect x="125.016" y="983.579" width="8.66165" height="24" transform="rotate(90 125.016 983.579)" fill="white"/>
<rect x="125.016" y="938.346" width="8.66165" height="26" transform="rotate(90 125.016 938.346)" fill="white"/>
<rect x="108.016" y="969.143" width="8.66165" height="24" transform="rotate(90 108.016 969.143)" fill="white"/>
<rect x="108.016" y="1015.34" width="8.66165" height="24" transform="rotate(90 108.016 1015.34)" fill="white"/>
<rect width="9" height="47.87" transform="matrix(-1 -0.000402452 0.000434505 -1 93 1020.92)" fill="white"/>
<rect width="9" height="16.9834" transform="matrix(-1 -0.000402452 0.000434505 -1 93.0078 957.259)" fill="white"/>
<rect width="9" height="16.9834" transform="matrix(-1 -0.000402452 0.000434505 -1 108.008 955.333)" fill="white"/>
<rect width="9" height="23.1162" transform="matrix(-1 -0.000402452 0.000434505 -1 109.006 992.262)" fill="white"/>
<rect width="9" height="53.4859" transform="matrix(-1 -0.000402452 0.000434505 -1 124.99 992.2)" fill="white"/>
<rect y="715" width="146" height="310" fill="url(#paint0_linear_244_343)"/>
<rect x="146" y="307" width="146" height="309" transform="rotate(180 146 307)" fill="url(#paint1_linear_244_343)"/>
<defs>
<linearGradient id="paint0_linear_244_343" x1="97.5" y1="1025" x2="108.341" y2="715.274" gradientUnits="userSpaceOnUse">
<stop stop-color="#D61F3B"/>
<stop offset="1" stop-color="#DC213E" stop-opacity="0"/>
</linearGradient>
<linearGradient id="paint1_linear_244_343" x1="243.5" y1="616" x2="254.272" y2="307.271" gradientUnits="userSpaceOnUse">
<stop stop-color="#D61F3B"/>
<stop offset="1" stop-color="#DC213E" stop-opacity="0"/>
</linearGradient>
</defs>
</svg>
