<svg width="539" height="486" viewBox="0 0 539 486" fill="none" xmlns="http://www.w3.org/2000/svg">
<path d="M32.4364 485.774C20.0894 448.487 4.45724 412.092 0.924437 372.704C-2.60837 333.317 3.63785 291.486 25.6745 259.75C54.9784 217.546 106.74 199.641 138.615 159.642C163.939 127.862 174.397 85.0101 198.958 52.5511C229.036 12.8045 280.146 -7.22083 327.02 2.37555C373.893 11.9719 414.539 50.7792 428.864 99.6156C437.356 128.569 437.073 159.793 445.195 188.87C454.775 223.172 475.4 252.435 494.736 281.621C514.072 310.807 532.959 341.943 538.143 377.319C543.328 412.695 524.883 471.681 485.432 485.771L32.4364 485.774Z" fill="#D61F3B"/>
<path d="M203.263 485.774H59.9141L82.7012 277.781H214.145L203.263 485.774Z" fill="#DD453D"/>
<path d="M99.377 307.696L90.0727 385.935C87.2597 409.589 78.6166 432.013 65.0367 450.891L64.1484 452.123L83.2215 299.425L99.377 307.696Z" fill="#C43330"/>
<path d="M148.728 314.811H146.07C130.831 314.811 118.479 301.559 118.479 285.209L99.3832 307.696L82.707 277.781H214.148V309.046L176.319 281.684V285.212C176.319 301.559 163.967 314.811 148.728 314.811Z" fill="#931818"/>
<path d="M186.129 220.255C186.129 228.556 192.401 235.285 200.138 235.285C207.875 235.285 214.146 228.556 214.146 220.255C214.146 211.954 207.875 205.225 200.138 205.225C192.401 205.225 186.129 211.954 186.129 220.255Z" fill="#FCB7AC"/>
<path d="M193.021 220.255C193.021 224.473 196.207 227.891 200.141 227.891C204.072 227.891 207.257 224.47 207.257 220.255C207.257 216.038 204.072 212.62 200.141 212.62C196.21 212.617 193.021 216.035 193.021 220.255Z" fill="#EA9686"/>
<path d="M163.797 273.563C165.236 273.563 166.658 273.484 168.065 273.339L168.511 277.6C169.872 290.562 160.417 301.911 148.259 301.911C137.002 301.911 127.879 292.121 127.879 280.046V253.653C135.863 265.698 148.971 273.563 163.797 273.563Z" fill="#FFC8BD"/>
<path d="M161.882 214.386L168.065 273.339C166.661 273.484 165.236 273.564 163.797 273.564C148.969 273.564 135.863 265.698 127.879 253.651V214.386H161.882Z" fill="#09090C"/>
<path d="M159.01 264.058C183.344 264.058 203.07 242.893 203.07 216.785V200.085V186.714C203.07 160.607 183.344 139.442 159.01 139.442C134.676 139.442 114.949 160.607 114.949 186.714V216.785C114.949 242.893 134.676 264.058 159.01 264.058Z" fill="#FFC8BD"/>
<path d="M174.187 127.345L182.256 118.688C179.369 118.003 176.23 118.858 173.983 121.268C173.404 121.892 172.924 122.58 172.536 123.311V110.157C169.588 112.175 167.627 115.708 167.627 119.74C167.627 121.829 168.163 123.776 169.08 125.455C160.587 119.14 149.45 117.121 139.321 119.575C127.921 122.339 117.915 130.401 111.381 140.797C104.846 151.194 101.648 163.772 101.285 176.307C100.923 188.842 103.404 200.791 107.284 212.62L121.571 222.526L125.377 218.442C127.666 215.986 128.953 212.653 128.953 209.177V200.86C139.15 200.86 149.945 196.497 158.04 189.842C166.134 183.187 172.079 173.58 174.652 162.995C175.686 169.833 176.298 176.275 177.332 183.11C179.933 181.185 182.351 177.896 182.874 174.552C183.397 171.208 182.609 167.65 180.737 164.917C184.64 168.803 188.804 173.169 191.926 177.797C192.732 174.804 191.989 171.276 190.312 168.735C195.941 172.643 201.47 180.993 203.068 188.615C220.844 152.056 202.516 118.469 174.187 127.345Z" fill="#09090C"/>
<path d="M97.3496 220.255C97.3496 228.556 103.621 235.285 111.358 235.285C119.095 235.285 125.367 228.556 125.367 220.255C125.367 211.954 119.095 205.225 111.358 205.225C103.621 205.225 97.3496 211.954 97.3496 220.255Z" fill="#FFC8BD"/>
<path d="M104.242 220.255C104.242 224.472 107.428 227.89 111.359 227.89C115.29 227.89 118.476 224.469 118.476 220.255C118.476 216.037 115.287 212.619 111.359 212.619C107.428 212.616 104.242 216.034 104.242 220.255Z" fill="#EA9686"/>
<path d="M157.323 204.25C160.759 203.242 164.139 203.91 167.059 206.085C168.366 207.057 169.599 204.765 168.302 203.801C164.871 201.246 160.688 200.52 156.667 201.698C155.141 202.147 155.789 204.699 157.323 204.25Z" fill="#0A0A0B"/>
<path d="M190.191 205.102C192.184 203.349 194.596 202.459 197.164 202.429C198.749 202.409 198.755 199.764 197.164 199.783C193.91 199.821 190.956 201.024 188.447 203.231C187.219 204.31 188.97 206.172 190.191 205.102Z" fill="#0A0A0B"/>
<path d="M176.316 220.274C177.082 222.873 179.321 224.771 181.999 224.771C184.676 224.771 186.915 222.873 187.681 220.274H176.316Z" fill="#EA9686"/>
<path d="M154.107 232.451C156.627 240.998 163.991 247.234 172.79 247.234C181.589 247.234 188.953 240.998 191.472 232.451H154.107Z" fill="white"/>
<path d="M154.876 195.108C158.363 192.72 162.079 191.808 166.194 192.233C169.872 192.613 169.849 186.443 166.194 186.065C161.178 185.548 156.216 186.876 151.973 189.784C148.867 191.915 151.746 197.253 154.876 195.108Z" fill="#09090C"/>
<path d="M187.268 191.635C190.311 191.487 193.18 192.081 195.891 193.593C199.169 195.42 202.078 190.101 198.791 188.269C195.204 186.27 191.314 185.27 187.268 185.47C183.585 185.648 183.564 191.815 187.268 191.635Z" fill="#09090C"/>
<path d="M81.4484 277.781C73.6094 277.781 66.6306 283.106 64.055 291.048L22.3301 419.753L32.4359 485.774H65.6657L57.3646 424.458L99.1252 303.084C102.571 290.437 93.7316 277.781 81.4484 277.781Z" fill="#FFC8BD"/>
<path d="M63.6023 289.854L18.707 403.907L75.2192 416.581L100.62 302.118C103.374 289.703 94.6011 277.781 82.7034 277.781H80.5669C73.1643 277.781 66.4816 282.536 63.6023 289.854Z" fill="#931818"/>
<path d="M26.8718 405.736L61.1584 413.426L57.3627 424.458L25.7461 409.211L26.8718 405.736Z" fill="#09090C"/>
<path d="M214.146 277.781C223.818 277.781 231.899 285.677 232.803 296.007L242.702 409.214L206.672 420.626L214.146 277.781Z" fill="#931818"/>
<path d="M212.509 309.046C216.657 325.324 218.827 342.11 218.97 358.986L219.452 416.578L206.674 420.626L212.509 309.046Z" fill="#721616"/>
<path d="M235.573 411.472V426.856L247.969 485.773H219.451L205.396 445.005L206.67 420.628L235.573 411.472Z" fill="#FFC8BD"/>
<path d="M235.577 411.472L206.674 420.628L205.668 435.932L235.577 417.092V411.472Z" fill="#09090C"/>
<path d="M203.263 485.774H59.9141L82.7012 277.781H214.145L203.263 485.774Z" fill="#DD453D"/>
<path d="M99.377 307.696L90.0727 385.935C87.2597 409.589 78.6166 432.013 65.0367 450.891L64.1484 452.123L83.2215 299.425L99.377 307.696Z" fill="#C43330"/>
<path d="M148.728 314.811H146.07C130.831 314.811 118.479 301.559 118.479 285.209L99.3832 307.696L82.707 277.781H214.148V309.046L176.319 281.684V285.212C176.319 301.559 163.967 314.811 148.728 314.811Z" fill="#931818"/>
<path d="M186.129 220.255C186.129 228.556 192.401 235.285 200.138 235.285C207.875 235.285 214.146 228.556 214.146 220.255C214.146 211.954 207.875 205.225 200.138 205.225C192.401 205.225 186.129 211.954 186.129 220.255Z" fill="#FCB7AC"/>
<path d="M193.021 220.255C193.021 224.473 196.207 227.891 200.141 227.891C204.072 227.891 207.257 224.47 207.257 220.255C207.257 216.038 204.072 212.62 200.141 212.62C196.21 212.617 193.021 216.035 193.021 220.255Z" fill="#EA9686"/>
<path d="M163.797 273.563C165.236 273.563 166.658 273.484 168.065 273.339L168.511 277.6C169.872 290.562 160.417 301.911 148.259 301.911C137.002 301.911 127.879 292.121 127.879 280.046V253.653C135.863 265.698 148.971 273.563 163.797 273.563Z" fill="#FFC8BD"/>
<path d="M161.882 214.386L168.065 273.339C166.661 273.484 165.236 273.564 163.797 273.564C148.969 273.564 135.863 265.698 127.879 253.651V214.386H161.882Z" fill="#09090C"/>
<path d="M159.01 264.058C183.344 264.058 203.07 242.893 203.07 216.785V200.085V186.714C203.07 160.607 183.344 139.442 159.01 139.442C134.676 139.442 114.949 160.607 114.949 186.714V216.785C114.949 242.893 134.676 264.058 159.01 264.058Z" fill="#FFC8BD"/>
<path d="M174.187 127.345L182.256 118.688C179.369 118.003 176.23 118.858 173.983 121.268C173.404 121.892 172.924 122.58 172.536 123.311V110.157C169.588 112.175 167.627 115.708 167.627 119.74C167.627 121.829 168.163 123.776 169.08 125.455C160.587 119.14 149.45 117.121 139.321 119.575C127.921 122.339 117.915 130.401 111.381 140.797C104.846 151.194 101.648 163.772 101.285 176.307C100.923 188.842 103.404 200.791 107.284 212.62L121.571 222.526L125.377 218.442C127.666 215.986 128.953 212.653 128.953 209.177V200.86C139.15 200.86 149.945 196.497 158.04 189.842C166.134 183.187 172.079 173.58 174.652 162.995C175.686 169.833 176.298 176.275 177.332 183.11C179.933 181.185 182.351 177.896 182.874 174.552C183.397 171.208 182.609 167.65 180.737 164.917C184.64 168.803 188.804 173.169 191.926 177.797C192.732 174.804 191.989 171.276 190.312 168.735C195.941 172.643 201.47 180.993 203.068 188.615C220.844 152.056 202.516 118.469 174.187 127.345Z" fill="#09090C"/>
<path d="M97.3496 220.255C97.3496 228.556 103.621 235.285 111.358 235.285C119.095 235.285 125.367 228.556 125.367 220.255C125.367 211.954 119.095 205.225 111.358 205.225C103.621 205.225 97.3496 211.954 97.3496 220.255Z" fill="#FFC8BD"/>
<path d="M104.242 220.255C104.242 224.472 107.428 227.89 111.359 227.89C115.29 227.89 118.476 224.469 118.476 220.255C118.476 216.037 115.287 212.619 111.359 212.619C107.428 212.616 104.242 216.034 104.242 220.255Z" fill="#EA9686"/>
<path d="M157.323 204.25C160.759 203.242 164.139 203.91 167.059 206.085C168.366 207.057 169.599 204.765 168.302 203.801C164.871 201.246 160.688 200.52 156.667 201.698C155.141 202.147 155.789 204.699 157.323 204.25Z" fill="#0A0A0B"/>
<path d="M190.191 205.102C192.184 203.349 194.596 202.459 197.164 202.429C198.749 202.409 198.755 199.764 197.164 199.783C193.91 199.821 190.956 201.024 188.447 203.231C187.219 204.31 188.97 206.172 190.191 205.102Z" fill="#0A0A0B"/>
<path d="M176.316 220.274C177.082 222.873 179.321 224.771 181.999 224.771C184.676 224.771 186.915 222.873 187.681 220.274H176.316Z" fill="#EA9686"/>
<path d="M154.107 232.451C156.627 240.998 163.991 247.234 172.79 247.234C181.589 247.234 188.953 240.998 191.472 232.451H154.107Z" fill="white"/>
<path d="M154.876 195.108C158.363 192.72 162.079 191.808 166.194 192.233C169.872 192.613 169.849 186.443 166.194 186.065C161.178 185.548 156.216 186.876 151.973 189.784C148.867 191.915 151.746 197.253 154.876 195.108Z" fill="#09090C"/>
<path d="M187.268 191.635C190.311 191.487 193.18 192.081 195.891 193.593C199.169 195.42 202.078 190.101 198.791 188.269C195.204 186.27 191.314 185.27 187.268 185.47C183.585 185.648 183.564 191.815 187.268 191.635Z" fill="#09090C"/>
<path d="M81.4484 277.781C73.6094 277.781 66.6306 283.106 64.055 291.048L22.3301 419.753L32.4359 485.774H65.6657L57.3646 424.458L99.1252 303.084C102.571 290.437 93.7316 277.781 81.4484 277.781Z" fill="#FFC8BD"/>
<path d="M63.6023 289.854L18.707 403.907L75.2192 416.581L100.62 302.118C103.374 289.703 94.6011 277.781 82.7034 277.781H80.5669C73.1643 277.781 66.4816 282.536 63.6023 289.854Z" fill="#931818"/>
<path d="M26.8718 405.736L61.1584 413.426L57.3627 424.458L25.7461 409.211L26.8718 405.736Z" fill="#09090C"/>
<path d="M214.146 277.781C223.818 277.781 231.899 285.677 232.803 296.007L242.702 409.214L206.672 420.626L214.146 277.781Z" fill="#931818"/>
<path d="M212.509 309.046C216.657 325.324 218.827 342.11 218.97 358.986L219.452 416.578L206.674 420.626L212.509 309.046Z" fill="#721616"/>
<path d="M235.573 411.472V426.856L247.969 485.773H219.451L205.396 445.005L206.67 420.628L235.573 411.472Z" fill="#FFC8BD"/>
<path d="M235.577 411.472L206.674 420.628L205.668 435.932L235.577 417.092V411.472Z" fill="#09090C"/>
<path d="M485.43 485.774H411.634H337.838L345.743 273.563H477.527L485.43 485.774Z" fill="#F3D24B"/>
<path d="M345.742 273.563C334.192 273.563 324.091 281.914 321.148 293.898L290.532 418.536C288.26 427.779 292.786 437.384 301.069 440.906C311.185 445.206 322.478 438.729 324.762 427.314L343.503 333.7L345.742 273.563Z" fill="#EBA696"/>
<path d="M325.187 425.18L286.55 327.174H264.838L290.913 429.461L325.187 425.18Z" fill="#EBA696"/>
<path d="M264.839 327.174L246.481 303.109L244.669 285.68C244.23 281.468 247.303 277.781 251.255 277.781H259.923C265.735 277.781 270.866 281.856 272.564 287.821L275.453 297.971L280.964 307.033C284.607 313.023 286.547 320.023 286.547 327.174H264.839Z" fill="#EBA696"/>
<path d="M246.483 303.109L235.229 290.519L235.913 290.363C239.103 289.634 242.432 290.144 245.306 291.801L246.483 303.109Z" fill="#E57968"/>
<path d="M345.742 273.563H344.726C333.655 273.563 323.858 281.245 320.494 292.559L304.91 344.986L342.668 356.061L345.742 273.563Z" fill="#F3D24B"/>
<path d="M308.347 345.994L339.226 355.051L336.084 370.744L307.359 350.02L308.347 345.994Z" fill="#09090C"/>
<path d="M306.811 378.56L327.831 411.98L325.189 425.181L306.811 378.56Z" fill="#E57968"/>
<path d="M342.669 356.062L344.66 311.073C339.093 323.244 336.201 336.62 336.201 350.176V354.164L342.669 356.062Z" fill="#E8B71A"/>
<path d="M477.529 273.564H478.545C489.616 273.564 499.413 281.246 502.777 292.559L518.361 344.986L480.603 356.061L477.529 273.564Z" fill="#F3D24B"/>
<path d="M485.431 354.646L497.944 425.184L411.636 455.29L390.094 447.296C387.404 446.296 384.427 446.792 382.148 448.618L370.345 458.067C367.333 460.477 366.181 464.741 367.524 468.504L369.339 473.595C370.62 477.194 373.895 479.519 377.482 479.382L411.636 478.07L513.01 454.112C525.152 451.242 532.879 438.42 530.332 425.362L514.853 346.016L485.431 354.646Z" fill="#EBA696"/>
<path d="M485.43 354.646L514.851 346.016L516.035 352.091L488.38 371.281L485.43 354.646Z" fill="#09090C"/>
<path d="M497.943 425.181L513.718 419.835L511.924 418.687C507.214 415.675 501.644 414.601 496.256 415.672L497.943 425.181Z" fill="#E57968"/>
<path d="M480.602 356.062L478.611 311.073C484.179 323.244 487.073 336.62 487.073 350.177V354.164L480.602 356.062Z" fill="#E8B71A"/>
<path d="M368.305 220.255C368.305 228.556 362.033 235.285 354.296 235.285C346.559 235.285 340.287 228.556 340.287 220.255C340.287 211.954 346.559 205.225 354.296 205.225C362.033 205.225 368.305 211.954 368.305 220.255Z" fill="#EA9686"/>
<path d="M361.413 220.256C361.413 224.473 358.227 227.891 354.296 227.891C350.365 227.891 347.18 224.471 347.18 220.256C347.18 216.038 350.365 212.62 354.296 212.62C358.227 212.618 361.413 216.036 361.413 220.256Z" fill="#E57968"/>
<path d="M390.634 273.564C389.195 273.564 387.77 273.485 386.366 273.34L385.92 277.601C384.559 290.563 394.014 301.912 406.172 301.912C417.429 301.912 426.552 292.121 426.552 280.047V253.654C418.567 265.699 405.462 273.564 390.634 273.564Z" fill="#EBA696"/>
<path d="M392.552 214.387L386.369 273.34C387.773 273.485 389.197 273.565 390.637 273.565C405.465 273.565 418.57 265.699 426.555 253.652V214.387H392.552Z" fill="#09090C"/>
<path d="M395.426 264.059C371.092 264.059 351.365 242.894 351.365 216.786V202.654V186.715C351.365 160.607 371.092 139.443 395.426 139.443C419.76 139.443 439.486 160.607 439.486 186.715V216.786C439.484 242.894 419.76 264.059 395.426 264.059Z" fill="#EBA696"/>
<path d="M429.07 220.255C426.387 217.377 424.878 213.472 424.878 209.402V197.007L422.961 194.95C420.279 192.071 418.77 188.166 418.77 184.096V170.03C415.288 173.558 409.856 174.451 405.078 174.122C400.299 173.793 395.687 171.252 392.654 167.275C391.273 171.066 388.251 173.988 384.585 175.042C380.92 176.097 376.81 175.174 373.849 172.629C369.369 177.775 362.089 180.574 355.649 179.232C349.209 177.89 343.603 172.109 342.705 165.134C341.809 158.158 346.153 150.654 352.535 149.014C351.665 145.73 353.114 141.907 355.325 139.45C357.535 136.994 360.997 135.923 364.088 136.739C365.911 129.125 371.702 122.947 378.845 121.191C385.987 119.436 393.943 122.281 398.673 128.287C401.285 124.932 405.68 123.525 409.703 124.229C413.726 124.93 417.307 128.035 418.793 132.108C423.804 129.229 431.137 130.161 435.566 133.984C439.995 137.807 442.006 144.572 440.457 150.441C446.318 151.547 451.382 156.545 452.934 162.713C454.486 168.877 452.436 175.916 447.89 180.038C452.056 183.905 453.378 191.4 452.38 197.212C451.382 203.023 448.043 208.164 443.829 211.971C439.615 215.767 434.576 220.255 429.07 220.255Z" fill="black"/>
<path d="M457.09 220.256C457.09 228.557 450.818 235.285 443.081 235.285C435.344 235.285 429.072 228.557 429.072 220.256C429.072 211.955 435.344 205.226 443.081 205.226C450.818 205.226 457.09 211.955 457.09 220.256Z" fill="#EBA696"/>
<path d="M450.198 220.256C450.198 224.473 447.01 227.891 443.081 227.891C439.15 227.891 435.965 224.47 435.965 220.256C435.965 216.038 439.15 212.62 443.081 212.62C447.013 212.617 450.198 216.035 450.198 220.256Z" fill="#E57968"/>
<path d="M361.423 205.225C363.362 205.225 364.935 203.537 364.935 201.456C364.935 199.375 363.362 197.688 361.423 197.688C359.483 197.688 357.91 199.375 357.91 201.456C357.91 203.537 359.483 205.225 361.423 205.225Z" fill="#09090C"/>
<path d="M353.882 191.241C357.474 189.94 361.063 189.349 364.851 189.456C368.55 189.56 368.547 183.395 364.851 183.291C360.593 183.17 356.389 183.836 352.353 185.296C348.869 186.558 350.365 192.515 353.882 191.241Z" fill="#BE562A"/>
<path d="M395.6 205.225C397.54 205.225 399.113 203.538 399.113 201.457C399.113 199.376 397.54 197.688 395.6 197.688C393.66 197.688 392.088 199.376 392.088 201.457C392.088 203.538 393.66 205.225 395.6 205.225Z" fill="#09090C"/>
<path d="M403.134 191.241C399.543 189.94 395.954 189.349 392.166 189.456C388.467 189.56 388.469 183.395 392.166 183.291C396.423 183.17 400.628 183.836 404.663 185.296C408.15 186.558 406.654 192.515 403.134 191.241Z" fill="#BE562A"/>
<path d="M376.427 199.4L365.058 220.493C364.037 222.391 365.203 224.782 367.24 224.96L382.492 226.291L376.427 199.4Z" fill="#E57968"/>
<path d="M366.105 231.479C368.449 241.579 376.934 249.072 387.07 249.072C397.209 249.072 405.691 241.579 408.035 231.479H366.105Z" fill="white"/>
<path d="M468.993 342.078H354.273V377.566H468.993V342.078Z" fill="white"/>
<path d="M321.107 49.2563H236.534C214.265 49.2563 196.213 68.6244 196.213 92.5167C196.213 116.409 214.265 135.777 236.534 135.777H253.394C252.421 148.479 247.298 160.458 238.836 169.537L237.427 171.049L258.474 162.526C269.976 157.867 278.894 148.041 283.012 135.777H321.109C343.378 135.777 361.43 116.409 361.43 92.5167C361.428 68.6244 343.373 49.2563 321.107 49.2563Z" fill="white"/>
<path d="M227.006 86.5455V104H224.585L215.713 91.1989H215.551V104H212.918V86.5455H215.355L224.236 99.3636H224.398V86.5455H227.006ZM234.452 104.29C233.623 104.29 232.873 104.136 232.202 103.83C231.532 103.517 231.001 103.065 230.609 102.474C230.222 101.884 230.029 101.159 230.029 100.301C230.029 99.5625 230.171 98.9545 230.455 98.4773C230.739 98 231.123 97.6222 231.606 97.3438C232.089 97.0653 232.629 96.8551 233.225 96.7131C233.822 96.571 234.43 96.4631 235.049 96.3892C235.833 96.2983 236.469 96.2244 236.958 96.1676C237.447 96.1051 237.802 96.0057 238.023 95.8693C238.245 95.733 238.356 95.5114 238.356 95.2045V95.1449C238.356 94.4006 238.146 93.8239 237.725 93.4148C237.31 93.0057 236.691 92.8011 235.867 92.8011C235.009 92.8011 234.333 92.9915 233.839 93.3722C233.35 93.7472 233.012 94.1648 232.825 94.625L230.43 94.0795C230.714 93.2841 231.129 92.642 231.674 92.1534C232.225 91.6591 232.859 91.3011 233.575 91.0795C234.29 90.8523 235.043 90.7386 235.833 90.7386C236.356 90.7386 236.91 90.8011 237.495 90.9261C238.086 91.0455 238.637 91.267 239.148 91.5909C239.665 91.9148 240.089 92.3778 240.418 92.9801C240.748 93.5767 240.913 94.3523 240.913 95.3068V104H238.424V102.21H238.322C238.157 102.54 237.91 102.864 237.58 103.182C237.251 103.5 236.827 103.764 236.31 103.974C235.793 104.185 235.174 104.29 234.452 104.29ZM235.006 102.244C235.711 102.244 236.313 102.105 236.813 101.827C237.319 101.548 237.702 101.185 237.964 100.736C238.231 100.281 238.364 99.7955 238.364 99.2784V97.5909C238.273 97.6818 238.097 97.767 237.836 97.8466C237.58 97.9205 237.288 97.9858 236.958 98.0426C236.629 98.0937 236.308 98.142 235.995 98.1875C235.683 98.2273 235.421 98.2614 235.211 98.2898C234.717 98.3523 234.265 98.4574 233.856 98.6051C233.452 98.7528 233.129 98.9659 232.884 99.2443C232.646 99.517 232.526 99.8807 232.526 100.335C232.526 100.966 232.759 101.443 233.225 101.767C233.691 102.085 234.285 102.244 235.006 102.244ZM244.307 108.909V90.9091H246.795V93.0312H247.009C247.156 92.7585 247.369 92.4432 247.648 92.0852C247.926 91.7273 248.313 91.4148 248.807 91.1477C249.301 90.875 249.955 90.7386 250.767 90.7386C251.824 90.7386 252.767 91.0057 253.597 91.5398C254.426 92.0739 255.077 92.8437 255.548 93.8494C256.026 94.8551 256.264 96.0653 256.264 97.4801C256.264 98.8949 256.028 100.108 255.557 101.119C255.085 102.125 254.438 102.901 253.614 103.446C252.79 103.986 251.849 104.256 250.793 104.256C249.997 104.256 249.347 104.122 248.841 103.855C248.341 103.588 247.949 103.276 247.665 102.918C247.381 102.56 247.162 102.241 247.009 101.963H246.855V108.909H244.307ZM246.804 97.4545C246.804 98.375 246.938 99.1818 247.205 99.875C247.472 100.568 247.858 101.111 248.364 101.503C248.869 101.889 249.489 102.082 250.222 102.082C250.983 102.082 251.619 101.881 252.131 101.477C252.642 101.068 253.028 100.514 253.29 99.8153C253.557 99.1165 253.69 98.3295 253.69 97.4545C253.69 96.5909 253.56 95.8153 253.298 95.1278C253.043 94.4403 252.656 93.8977 252.139 93.5C251.628 93.1023 250.989 92.9034 250.222 92.9034C249.483 92.9034 248.858 93.0937 248.347 93.4744C247.841 93.8551 247.457 94.3864 247.196 95.0682C246.935 95.75 246.804 96.5455 246.804 97.4545ZM259.119 104V90.9091H261.668V104H259.119ZM260.406 88.8892C259.963 88.8892 259.582 88.7415 259.264 88.446C258.952 88.1449 258.795 87.7869 258.795 87.3722C258.795 86.9517 258.952 86.5937 259.264 86.2983C259.582 85.9972 259.963 85.8466 260.406 85.8466C260.849 85.8466 261.227 85.9972 261.54 86.2983C261.858 86.5937 262.017 86.9517 262.017 87.3722C262.017 87.7869 261.858 88.1449 261.54 88.446C261.227 88.7415 260.849 88.8892 260.406 88.8892ZM273.791 99.5597L273.774 96.4489H274.217L279.433 90.9091H282.484L276.536 97.2159H276.135L273.791 99.5597ZM271.447 104V86.5455H273.996V104H271.447ZM279.714 104L275.027 97.7784L276.783 95.9972L282.842 104H279.714ZM288.616 104.29C287.787 104.29 287.037 104.136 286.366 103.83C285.696 103.517 285.165 103.065 284.773 102.474C284.386 101.884 284.193 101.159 284.193 100.301C284.193 99.5625 284.335 98.9545 284.619 98.4773C284.903 98 285.287 97.6222 285.77 97.3438C286.253 97.0653 286.793 96.8551 287.389 96.7131C287.986 96.571 288.594 96.4631 289.213 96.3892C289.997 96.2983 290.634 96.2244 291.122 96.1676C291.611 96.1051 291.966 96.0057 292.188 95.8693C292.409 95.733 292.52 95.5114 292.52 95.2045V95.1449C292.52 94.4006 292.31 93.8239 291.889 93.4148C291.474 93.0057 290.855 92.8011 290.031 92.8011C289.173 92.8011 288.497 92.9915 288.003 93.3722C287.514 93.7472 287.176 94.1648 286.989 94.625L284.594 94.0795C284.878 93.2841 285.293 92.642 285.838 92.1534C286.389 91.6591 287.023 91.3011 287.739 91.0795C288.455 90.8523 289.207 90.7386 289.997 90.7386C290.52 90.7386 291.074 90.8011 291.659 90.9261C292.25 91.0455 292.801 91.267 293.312 91.5909C293.83 91.9148 294.253 92.3778 294.582 92.9801C294.912 93.5767 295.077 94.3523 295.077 95.3068V104H292.588V102.21H292.486C292.321 102.54 292.074 102.864 291.744 103.182C291.415 103.5 290.991 103.764 290.474 103.974C289.957 104.185 289.338 104.29 288.616 104.29ZM289.17 102.244C289.875 102.244 290.477 102.105 290.977 101.827C291.483 101.548 291.866 101.185 292.128 100.736C292.395 100.281 292.528 99.7955 292.528 99.2784V97.5909C292.438 97.6818 292.261 97.767 292 97.8466C291.744 97.9205 291.452 97.9858 291.122 98.0426C290.793 98.0937 290.472 98.142 290.159 98.1875C289.847 98.2273 289.585 98.2614 289.375 98.2898C288.881 98.3523 288.429 98.4574 288.02 98.6051C287.616 98.7528 287.293 98.9659 287.048 99.2443C286.81 99.517 286.69 99.8807 286.69 100.335C286.69 100.966 286.923 101.443 287.389 101.767C287.855 102.085 288.449 102.244 289.17 102.244ZM298.675 104V86.5455H301.224V93.0312H301.377C301.525 92.7585 301.738 92.4432 302.016 92.0852C302.295 91.7273 302.681 91.4148 303.175 91.1477C303.67 90.875 304.323 90.7386 305.136 90.7386C306.192 90.7386 307.136 91.0057 307.965 91.5398C308.795 92.0739 309.445 92.8437 309.917 93.8494C310.394 94.8551 310.633 96.0653 310.633 97.4801C310.633 98.8949 310.397 100.108 309.925 101.119C309.454 102.125 308.806 102.901 307.982 103.446C307.158 103.986 306.218 104.256 305.161 104.256C304.366 104.256 303.715 104.122 303.21 103.855C302.71 103.588 302.317 103.276 302.033 102.918C301.749 102.56 301.531 102.241 301.377 101.963H301.164V104H298.675ZM301.173 97.4545C301.173 98.375 301.306 99.1818 301.573 99.875C301.84 100.568 302.227 101.111 302.732 101.503C303.238 101.889 303.857 102.082 304.59 102.082C305.352 102.082 305.988 101.881 306.499 101.477C307.011 101.068 307.397 100.514 307.658 99.8153C307.925 99.1165 308.059 98.3295 308.059 97.4545C308.059 96.5909 307.928 95.8153 307.667 95.1278C307.411 94.4403 307.025 93.8977 306.508 93.5C305.996 93.1023 305.357 92.9034 304.59 92.9034C303.852 92.9034 303.227 93.0937 302.715 93.4744C302.21 93.8551 301.826 94.3864 301.565 95.0682C301.303 95.75 301.173 96.5455 301.173 97.4545ZM317.304 104.29C316.474 104.29 315.724 104.136 315.054 103.83C314.384 103.517 313.852 103.065 313.46 102.474C313.074 101.884 312.881 101.159 312.881 100.301C312.881 99.5625 313.023 98.9545 313.307 98.4773C313.591 98 313.974 97.6222 314.457 97.3438C314.94 97.0653 315.48 96.8551 316.077 96.7131C316.673 96.571 317.281 96.4631 317.901 96.3892C318.685 96.2983 319.321 96.2244 319.81 96.1676C320.298 96.1051 320.653 96.0057 320.875 95.8693C321.097 95.733 321.207 95.5114 321.207 95.2045V95.1449C321.207 94.4006 320.997 93.8239 320.577 93.4148C320.162 93.0057 319.543 92.8011 318.719 92.8011C317.861 92.8011 317.185 92.9915 316.69 93.3722C316.202 93.7472 315.864 94.1648 315.676 94.625L313.281 94.0795C313.565 93.2841 313.98 92.642 314.526 92.1534C315.077 91.6591 315.71 91.3011 316.426 91.0795C317.142 90.8523 317.895 90.7386 318.685 90.7386C319.207 90.7386 319.761 90.8011 320.347 90.9261C320.938 91.0455 321.489 91.267 322 91.5909C322.517 91.9148 322.94 92.3778 323.27 92.9801C323.599 93.5767 323.764 94.3523 323.764 95.3068V104H321.276V102.21H321.173C321.009 102.54 320.761 102.864 320.432 103.182C320.102 103.5 319.679 103.764 319.162 103.974C318.645 104.185 318.026 104.29 317.304 104.29ZM317.858 102.244C318.563 102.244 319.165 102.105 319.665 101.827C320.17 101.548 320.554 101.185 320.815 100.736C321.082 100.281 321.216 99.7955 321.216 99.2784V97.5909C321.125 97.6818 320.949 97.767 320.688 97.8466C320.432 97.9205 320.139 97.9858 319.81 98.0426C319.48 98.0937 319.159 98.142 318.847 98.1875C318.534 98.2273 318.273 98.2614 318.062 98.2898C317.568 98.3523 317.116 98.4574 316.707 98.6051C316.304 98.7528 315.98 98.9659 315.736 99.2443C315.497 99.517 315.378 99.8807 315.378 100.335C315.378 100.966 315.611 101.443 316.077 101.767C316.543 102.085 317.136 102.244 317.858 102.244ZM327.158 104V90.9091H329.621V92.9886H329.758C329.996 92.2841 330.417 91.7301 331.019 91.3267C331.627 90.9176 332.315 90.7131 333.082 90.7131C333.241 90.7131 333.428 90.7187 333.644 90.7301C333.866 90.7415 334.039 90.7557 334.164 90.7727V93.2102C334.062 93.1818 333.88 93.1506 333.619 93.1165C333.357 93.0767 333.096 93.0568 332.835 93.0568C332.232 93.0568 331.695 93.1847 331.224 93.4403C330.758 93.6903 330.388 94.0398 330.116 94.4886C329.843 94.9318 329.707 95.4375 329.707 96.0057V104H327.158ZM339.156 98.9801V98.8182C339.168 97.7614 339.273 96.9205 339.472 96.2955C339.676 95.6705 339.966 95.1648 340.341 94.7784C340.716 94.392 341.168 94.0398 341.696 93.7216C342.037 93.5057 342.344 93.2642 342.616 92.9972C342.889 92.7301 343.105 92.4233 343.264 92.0767C343.423 91.7301 343.503 91.3466 343.503 90.9261C343.503 90.4205 343.384 89.983 343.145 89.6136C342.906 89.2443 342.588 88.9602 342.19 88.7614C341.798 88.5568 341.361 88.4545 340.878 88.4545C340.44 88.4545 340.023 88.5455 339.625 88.7273C339.227 88.9091 338.898 89.1932 338.636 89.5795C338.375 89.9602 338.224 90.4517 338.185 91.054H335.594C335.634 90.0312 335.892 89.1676 336.369 88.4631C336.847 87.7528 337.477 87.2159 338.261 86.8523C339.051 86.4886 339.923 86.3068 340.878 86.3068C341.923 86.3068 342.838 86.5028 343.622 86.8949C344.406 87.2812 345.014 87.8239 345.446 88.5227C345.884 89.2159 346.102 90.0256 346.102 90.9517C346.102 91.5881 346.003 92.1619 345.804 92.6733C345.605 93.179 345.321 93.6307 344.952 94.0284C344.588 94.4261 344.151 94.7784 343.639 95.0852C343.156 95.3864 342.764 95.6989 342.463 96.0227C342.168 96.3466 341.952 96.7301 341.815 97.1733C341.679 97.6165 341.605 98.1648 341.594 98.8182V98.9801H339.156ZM340.443 104.162C339.977 104.162 339.577 103.997 339.241 103.668C338.906 103.332 338.739 102.929 338.739 102.457C338.739 101.991 338.906 101.594 339.241 101.264C339.577 100.929 339.977 100.761 340.443 100.761C340.903 100.761 341.301 100.929 341.636 101.264C341.977 101.594 342.148 101.991 342.148 102.457C342.148 102.77 342.068 103.057 341.909 103.318C341.756 103.574 341.551 103.778 341.295 103.932C341.04 104.085 340.756 104.162 340.443 104.162Z" fill="black"/>
</svg>
