<svg width="347" height="424" viewBox="0 0 347 424" fill="none" xmlns="http://www.w3.org/2000/svg">
<g filter="url(#filter0_d_158_1288)">
<path d="M326.881 407.647C305.472 417.851 270.762 417.851 249.35 407.647C227.941 397.444 227.941 380.898 249.35 370.694C270.762 360.491 305.472 360.491 326.881 370.694C348.291 380.898 348.291 397.444 326.881 407.647Z" fill="#FAFAFA"/>
</g>
<path d="M329.271 377.381C329.77 378.044 329.861 379.578 330.368 381.655C330.876 383.728 331.048 385.337 330.708 386.352C330.369 387.367 328.136 389.653 325.401 390.499C322.667 391.346 319.303 390.635 316.046 388.686C312.789 386.74 310.332 384.373 305.693 383.054C301.053 381.733 298.735 380.661 296.536 378.898C293.964 376.834 290.531 371.125 295.449 369.806C300.411 368.474 311.073 373.148 320.804 373.572L329.271 377.381Z" fill="#AC1A30"/>
<path d="M328.817 370.946C328.817 370.946 329.394 377.776 329.396 378.602C329.405 380.915 320.888 384 319.304 378.602L317.953 371.346L328.817 370.946Z" fill="#F28F8F"/>
<path d="M318.368 221.134C321.317 225.724 324.189 230.022 326.393 234.503C326.393 234.503 327.235 244.447 327.235 251.06C327.235 263.218 325.344 272.608 323.619 296.55C323.619 296.55 327.601 302.481 328.234 312.029C328.953 322.877 328.962 322.806 329.033 372.8C329.033 372.8 324.539 375.627 318.385 373.84L302.245 303.752L300.49 276.249L295.449 242.053L318.368 221.134Z" fill="#7A0D1D"/>
<path d="M280.286 389.902C280.865 390.5 280.669 391.623 280.926 393.657C281.196 395.775 281.373 397.2 281.164 398.251C280.953 399.3 279.024 401.845 276.417 403.025C273.807 404.205 270.38 403.92 266.907 402.392C263.435 400.867 260.7 398.823 255.933 398.092C251.166 397.359 248.731 396.583 246.331 395.107C243.523 393.378 239.403 388.143 244.121 386.22C248.878 384.282 260.659 387.775 270.37 386.985L280.286 389.902Z" fill="#AC1A30"/>
<path d="M282.524 381.325C282.524 381.325 280.696 389.113 280.253 390.849C279.185 395.022 269.936 395.233 269.936 390.42L270.558 379.347L282.524 381.325Z" fill="#F28F8F"/>
<path d="M297.496 223.182C302.131 232.264 306.596 240.302 306.749 250.006C307.078 270.498 298.576 293.077 295.448 307.895C295.448 307.895 297.019 316.244 296.227 324.151C295.605 330.341 281.465 386.675 281.465 386.675C281.465 386.675 273.605 388.309 270.254 384.765L274.236 276.252L275.303 244.726L297.496 223.182Z" fill="#7A0D1D"/>
<path d="M291.131 167.697L294.059 183.826L308.63 182.763L305.571 164.478L291.131 167.697Z" fill="#FFC8BD"/>
<path d="M324.02 181.586C322.576 177.201 317.014 172.427 311.446 173.46C301.217 175.36 293.103 177.392 287.062 179.55C281.964 181.369 277.322 185.775 276.901 202.543L275.301 244.726C275.301 244.726 277.952 247.411 282.997 248.798C290.753 250.93 295.849 252.196 307.621 249.624C322.939 246.278 326.585 237.003 326.585 237.003C326.585 237.003 325.996 214.683 325.536 202.543C325.147 192.23 325.011 184.596 324.02 181.586Z" fill="#D7203C"/>
<path d="M284.916 147.088L210.656 126.938C203.939 125.787 201.131 142.179 207.846 143.33L284.185 151.043L284.916 147.088Z" fill="#AC1A30"/>
<path d="M263.562 181.12L248.383 181.583C248.383 181.583 250.675 159.001 252.081 156.048C253.488 153.095 256.881 152.479 260.228 151.517C263.576 150.555 263.587 148.963 263.587 148.963L260.561 148.657C257.912 148.389 256.866 145.077 258.01 142.853C258.548 141.809 259.445 140.174 261.054 140.612C262.663 141.048 265.06 141.699 265.06 141.699C265.06 141.699 265.108 138.138 263.791 136.671C262.457 135.187 261.551 135.643 258.884 134.719C256.893 134.027 252.843 132.787 249.565 134.134C246.287 135.48 243.8 141.615 242.976 145.956C242.152 150.3 241.788 152.568 238.863 160.624C235.941 168.678 231.66 185.185 231.256 191.813C231.07 194.864 231.354 196.678 234.752 197.489C238.15 198.299 263.124 198.349 263.124 198.349L263.562 181.12Z" fill="#FFC8BD"/>
<path d="M280.348 148.584C280.348 148.584 276.819 153.808 277.268 154.368C277.717 154.927 279.92 155.54 279.92 155.54L280.348 148.584Z" fill="#FFC8BD"/>
<path d="M291.13 132.027C287.734 133.741 281.862 136.912 280.239 149.349C278.575 162.116 280.766 166.231 282.493 167.924C283.658 169.066 289.997 169.136 293.173 168.183C297.146 166.991 306.109 163.586 310.195 157.026C315.001 149.31 316.077 138.973 310.652 134.867C303.018 129.083 294.004 130.576 291.13 132.027Z" fill="#FFC8BD"/>
<path d="M301.107 286.131L308.851 264.246C308.851 264.246 318.242 261.229 324.49 253.815C324.49 253.815 322.764 260.055 310.477 266.446L301.99 287.154L301.921 298.665L301.107 286.131Z" fill="#AC1A30"/>
<path d="M279.53 136.304C280.649 139.368 282.528 146.862 290.35 149.996C290.35 149.996 291.467 145.218 295.483 145.724C299.526 146.233 300.186 151.358 297.717 154.536C295.247 157.714 292.852 156.572 292.852 156.572C292.852 156.572 292.314 163.425 296.89 166.529C296.89 166.529 302.409 170.027 308.26 167.339C310.893 166.131 314.614 159.827 316.798 154.652C321.42 143.708 322.08 134.931 315.097 132.164C314.237 127.188 312.001 125.319 307.495 124.391C297.8 122.393 290.473 128.761 282.339 127.637C278.095 127.052 278.252 132.804 279.53 136.304Z" fill="#09090C"/>
<path d="M315.257 133.834L319.827 130.999C319.044 129.737 317.387 129.349 316.125 130.132C314.862 130.913 314.472 132.572 315.257 133.834Z" fill="#09090C"/>
<path d="M260.156 180.804C260.156 180.804 281.516 179.581 287.064 179.549C292.614 179.515 298.314 188.815 294.906 195.158C292.661 199.336 285.643 200.764 276.794 201.191C268.014 201.615 259.012 201.615 259.012 201.615C259.012 201.615 250.978 192.549 260.156 180.804Z" fill="#D7203C"/>
<path d="M276.942 201.184C276.942 201.184 290.48 201.009 294.902 195.159C294.902 195.159 293.871 198.669 288.621 200.938C283.457 203.172 276.863 203.469 276.863 203.469L276.942 201.184Z" fill="#AC1A30"/>
<path d="M210.656 126.936C203.939 125.785 201.131 142.178 207.846 143.329L218.496 144.405C214.135 143.963 217.164 128.704 220.491 129.607L210.656 126.936Z" fill="#455A64"/>
<path d="M71.012 2.79664C63.482 -1.56736 53.127 -0.972357 41.69 5.63064C18.665 18.9236 0 51.4977 0 78.3876C0 91.9176 4.737 101.406 12.371 105.814C14.135 106.833 21.061 110.786 21.055 110.825C20.298 116.003 18.138 121.469 11.342 125.484C10.907 125.741 11.182 126.164 11.565 126.391C11.724 126.485 21.743 132.267 22.133 132.492C22.289 132.582 22.462 132.64 22.612 132.64C33.016 132.657 45.07 125.646 48.424 111.094C49.683 110.501 50.956 109.844 52.245 109.1C75.27 95.8066 93.935 63.2326 93.935 36.3426C93.935 22.8106 89.205 13.3026 81.573 8.88664C79.797 7.85764 72.768 3.81364 71.012 2.79664Z" fill="#D61F3B"/>
<path d="M52.2466 11.7247C29.2226 25.0177 10.5566 57.5917 10.5566 84.4817C10.5566 102.724 19.1526 113.651 31.8676 114.649C31.3926 120.451 29.6996 126.97 21.8986 131.579C21.2826 131.943 22.0896 132.64 22.6126 132.641C33.0166 132.658 45.0706 125.647 48.4236 111.095C49.6826 110.502 50.9556 109.845 52.2446 109.101C75.2686 95.8077 93.9336 63.2337 93.9336 36.3437C93.9356 9.45372 75.2706 -1.56828 52.2466 11.7247Z" fill="#D7203C"/>
<path d="M21.8984 131.579C21.5214 131.813 21.6904 132.164 22.0024 132.41C20.7554 131.695 11.7124 126.485 11.5694 126.394C11.1794 126.16 10.9064 125.744 11.3484 125.484C18.1444 121.469 20.3004 115.999 21.0544 110.828L22.2104 111.504L23.2624 112.128C25.8354 113.557 28.7194 114.402 31.8634 114.649C31.3964 120.444 29.6944 126.966 21.8984 131.579Z" fill="#D61F3B"/>
<path opacity="0.2" d="M57.8105 105.442C70.0905 96.4377 80.6735 82.1776 87.1555 66.8586C74.8765 75.8626 64.2925 90.1227 57.8105 105.442Z" fill="black"/>
<g filter="url(#filter1_d_158_1288)">
<path d="M136.325 157.551C132.071 157.596 128.901 154.62 126.911 150.869C139.667 135.179 148.296 114.28 148.296 96.0018C148.296 82.4468 143.55 72.9288 135.895 68.5228C134.128 67.5058 127.112 63.4618 125.348 62.4428C117.82 58.0938 107.474 58.6938 96.0494 65.2908C73.0244 78.5838 54.3594 111.158 54.3594 138.048C54.3594 151.577 59.0864 161.084 66.7154 165.501C68.4944 166.531 75.5034 170.556 77.2424 171.569C84.7764 175.96 95.1484 175.375 106.607 168.759C109.593 167.035 112.504 164.98 115.313 162.661C123.059 168.788 132.501 162.109 136.24 158.912C136.74 158.483 136.795 157.546 136.325 157.551Z" fill="#AC1A30"/>
</g>
<g filter="url(#filter2_d_158_1288)">
<path d="M88.1554 173.745C74.2214 173.745 65.5664 162.401 65.5664 144.141C65.5664 117.501 84.1234 85.1157 106.931 71.9467C113.309 68.2637 119.408 66.3967 125.057 66.3967C138.991 66.3967 147.646 77.7407 147.646 96.0017C147.646 113.478 139.507 134.344 126.406 150.46L126.134 150.794L126.335 151.174C128.686 155.603 132.095 158.087 135.959 158.197C135.93 158.277 135.883 158.361 135.816 158.418C133.155 160.692 127.875 164.508 122.404 164.508H122.402C119.941 164.508 117.691 163.715 115.714 162.151L115.302 161.825L114.897 162.16C112.062 164.501 109.163 166.532 106.28 168.196C99.9024 171.879 93.8044 173.745 88.1554 173.745Z" fill="#D7203C"/>
</g>
<path d="M35.165 48.2291L59.269 34.3131C60.465 33.6221 61.434 34.1131 61.434 35.4081C61.434 36.7031 60.465 38.3131 59.269 39.0031L35.165 52.9201C33.969 53.6101 33 53.1201 33 51.8251C33 50.5291 33.968 48.9191 35.165 48.2291Z" fill="white"/>
<path d="M31 65.7286C31 67.0236 31.969 67.5146 33.165 66.8236L78.5 40.2612C79.695 39.5702 80 39.0563 80 37.7613C80 36.4663 77.195 37.0702 76 37.7612L33.165 62.1336C31.968 62.8236 31 64.4336 31 65.7286Z" fill="white"/>
<path d="M29 79.7286C29 81.0236 29.969 81.5146 31.165 80.8236L82.5 50.5001C83.695 49.8091 84.5 48.7952 84.5 47.5002C84.5 46.2052 81.695 47.309 80.5 48L31.165 76.1336C29.968 76.8236 29 78.4336 29 79.7286Z" fill="white"/>
<path d="M88.165 112.229L112.269 98.3131C113.465 97.6221 114.434 98.1131 114.434 99.4081C114.434 100.703 113.465 102.313 112.269 103.003L88.165 116.92C86.969 117.61 86 117.12 86 115.825C86 114.529 86.968 112.919 88.165 112.229Z" fill="#E0E0E0"/>
<path d="M84 129.729C84 131.024 84.969 131.515 86.165 130.824L131.5 104.261C132.695 103.57 133 103.056 133 101.761C133 100.466 130.195 101.07 129 101.761L86.165 126.134C84.968 126.824 84 128.434 84 129.729Z" fill="#E0E0E0"/>
<path d="M82 143.729C82 145.024 82.969 145.515 84.165 144.824L135.5 114.5C136.695 113.809 137.5 112.795 137.5 111.5C137.5 110.205 134.695 111.309 133.5 112L84.165 140.134C82.968 140.824 82 142.434 82 143.729Z" fill="#E0E0E0"/>
<defs>
<filter id="filter0_d_158_1288" x="229.293" y="363.042" width="117.646" height="60.2583" filterUnits="userSpaceOnUse" color-interpolation-filters="sRGB">
<feFlood flood-opacity="0" result="BackgroundImageFix"/>
<feColorMatrix in="SourceAlpha" type="matrix" values="0 0 0 0 0 0 0 0 0 0 0 0 0 0 0 0 0 0 127 0" result="hardAlpha"/>
<feOffset dy="4"/>
<feGaussianBlur stdDeviation="2"/>
<feComposite in2="hardAlpha" operator="out"/>
<feColorMatrix type="matrix" values="0 0 0 0 0 0 0 0 0 0 0 0 0 0 0 0 0 0 0.25 0"/>
<feBlend mode="normal" in2="BackgroundImageFix" result="effect1_dropShadow_158_1288"/>
<feBlend mode="normal" in="SourceGraphic" in2="effect1_dropShadow_158_1288" result="shape"/>
</filter>
<filter id="filter1_d_158_1288" x="50.3594" y="59.6597" width="101.938" height="122.73" filterUnits="userSpaceOnUse" color-interpolation-filters="sRGB">
<feFlood flood-opacity="0" result="BackgroundImageFix"/>
<feColorMatrix in="SourceAlpha" type="matrix" values="0 0 0 0 0 0 0 0 0 0 0 0 0 0 0 0 0 0 127 0" result="hardAlpha"/>
<feOffset dy="4"/>
<feGaussianBlur stdDeviation="2"/>
<feComposite in2="hardAlpha" operator="out"/>
<feColorMatrix type="matrix" values="0 0 0 0 0 0 0 0 0 0 0 0 0 0 0 0 0 0 0.1 0"/>
<feBlend mode="normal" in2="BackgroundImageFix" result="effect1_dropShadow_158_1288"/>
<feBlend mode="normal" in="SourceGraphic" in2="effect1_dropShadow_158_1288" result="shape"/>
</filter>
<filter id="filter2_d_158_1288" x="61.5664" y="66.3967" width="90.0801" height="115.348" filterUnits="userSpaceOnUse" color-interpolation-filters="sRGB">
<feFlood flood-opacity="0" result="BackgroundImageFix"/>
<feColorMatrix in="SourceAlpha" type="matrix" values="0 0 0 0 0 0 0 0 0 0 0 0 0 0 0 0 0 0 127 0" result="hardAlpha"/>
<feOffset dy="4"/>
<feGaussianBlur stdDeviation="2"/>
<feComposite in2="hardAlpha" operator="out"/>
<feColorMatrix type="matrix" values="0 0 0 0 0 0 0 0 0 0 0 0 0 0 0 0 0 0 0.1 0"/>
<feBlend mode="normal" in2="BackgroundImageFix" result="effect1_dropShadow_158_1288"/>
<feBlend mode="normal" in="SourceGraphic" in2="effect1_dropShadow_158_1288" result="shape"/>
</filter>
</defs>
</svg>
